<svg version="1.2" xmlns="http://www.w3.org/2000/svg" viewBox="0 0 5640 4230" width="5640" height="4230">
	<title>logo-svg</title>
	<style>
		.s0 { fill: #29b6f6 } 
		.s1 { fill: #000000 } 
	</style>
	<circle id="Forma 1" class="s0" cx="2820.1" cy="2115.1" r="1050.4"/>
	<g id="l76VOxBjywZ9ljcYRs27WTz">
		<g id="Layer">
			<path id="p1H7v29fhW" fill-rule="evenodd" class="s1" d="m2438.5 3090c-22.5-10.5-55.5-30-74-43-112-82.5-162-127.5-206-185.5-14.5-19.5-28.5-36.5-30.5-37.5-2-1-8-9-13-18.5l-9.5-17 14.5-13c32.5-28.5 218-185.5 263-223 26.5-22 48.5-42 48.5-44.5 0.5-2-14-20-31-40-38.5-43-56.5-69.5-80-115.5-35.5-71-58.5-156-58.5-218 0-17-2-29.5-5-29.5-8.5 0-56.5-37-74-57-36.5-41.5-53.5-95.5-49.5-159.5 2-37.5 5-49.5 20-80.5 22.5-45.5 61-82.5 107-104 27-13 42-16.5 75.5-18 23.5-1.5 54 0.5 69 3.5l26.5 6 41-32.5c67.5-53.5 158.5-94 249-111 62.5-12 166.5-7.5 232 9.5 78.5 21 170.5 69 224 117l19 17.5 26.5-6c15-3.5 46-5.5 69-4.5 36.5 2 48 4.5 81.5 20.5 48 23 82 56.5 104.5 103 14 29.5 16.5 39.5 18 85 2 44 0.5 56-9 82.5-6.5 17-17.5 40-25 51-17 24.5-53.5 59-74.5 69.5-8.5 4.5-15.5 10.5-15.5 13.5 0 27-13 109.5-23 143.5-22.5 78-67 159.5-116 212-12 13-21 26-20 28.5 0.5 3 34.5 32.5 74.5 66.5 40.5 34 106.5 89.5 147.5 124 41 34.5 80.5 67.5 88 72.5 17 12.5 17.5 25 2.5 35-6.5 4-19.5 18-28.5 31.5-9.5 13-18 24.5-19.5 26-2 1.5-18.5 20.5-38 42.5-19 22-40.5 44.5-47.5 50.5-7 6-18 16-25 22-45 40-152 114.5-182.5 127.5-17 7-17.5 6.5-15-4 15-64 22-256.5 12.5-333.5-7-56-21-115-26.5-115-3 0-37 18.5-75.5 41-39 22.5-92 53-118 68-26 15-66.5 38.5-89.5 52l-41.5 24-28.5-16c-15.5-8.5-89.5-51-164-94.5l-136.5-78.5-4.5 18c-19.5 75-23 110-22.5 223.5 0.5 90 2.5 126.5 10 168.5 5.5 29 9 55.5 8 58.5-3 8.5-10 6.5-54.5-14.5zm419.5-587c51.5-9.5 88-27 122.5-59 69-65 95-144.5 79.5-245l-4-28.5 36.5-17.5c50-24 79-50 98.5-89 39-77 29.5-168-24-226-43-46.5-101.5-71.5-157-66.5-25 2-43 9-98 37.5-37 19-74.5 36.5-83 38-20.5 4.5-48.5-5.5-110-39.5-61.5-33.5-94-42-138-34-65 11-118 50.5-147 109-13.5 27.5-14.5 34.5-14.5 85 0 50 1.5 58 14.5 86 18.5 40.5 61 81.5 105 101.5 28.5 12.5 35 18 34 30 0 1.5-2.5 19.5-5.5 40-17.5 130 72 254 200.5 277.5 46.5 8.5 44.5 8.5 90 0.5z"/>
			<path id="puZw0Klll" class="s1" d="m2795.5 2370.5l-104.5-3-12-15c-16.5-21-15.5-43 2.5-63.5l14.5-16.5h121 121l15 17c13 14.5 15 19.5 12.5 37-3.5 26-20 42-46 44.5-11 1-67 1-124-0.5z"/>
			<path id="pydHkNsNb" class="s1" d="m2712 2150c-17.5-33 55-103 82.5-80 17.5 14.5 1.5 50-33 75-24.5 17.5-42 19.5-49.5 5z"/>
			<path id="pcyhHy4Ks" class="s1" d="m2879.5 2152.5c-24-13-42.5-33-48.5-53.5-13-44.5 31.5-45.5 70-1.5 35.5 40 20.5 77-21.5 55z"/>
			<path id="p3vVOGCtB" class="s1" d="m2569.5 2066c-62-34-77.5-116.5-31-169 39-44.5 95-52.5 147.5-20.5l17 10-38 38c-21 21-38 40-38 42 0 2 25 3.5 55.5 3.5 50 0 55 1 52.5 9-1.5 4.5-4.5 17.5-7.5 28.5-6 23.5-34.5 53.5-61.5 65-29.5 12-67.5 9.5-96.5-6.5z"/>
			<path id="p1XMDciGs" class="s1" d="m2979.5 2070.5c-40-18.5-62.5-55.5-62.5-102 0-64 46-110 110-110.5 29.5-0.5 75 17.5 75 29 0 3.5-17 23-38 43.5l-38.5 37 54.5 1.5c30 0.5 56 3 58.5 5.5 2 2-0.5 16-6.5 31-10.5 29-32 53-58.5 66.5-22 11-69 10-94-1.5z"/>
			<path id="pRLjoeoY8" class="s1" d="m2587.5 3034c-10.5-61.5-11.5-119.5-3.5-178.5 4-31 8.5-57.5 9.5-58.5 1-1 49 25 106 58 57.5 33.5 110.5 64 118 68 14 7 16 6 75.5-28.5 34-20 79.5-46 101.5-58.5 22-12.5 46.5-27 54-32.5 17-11.5 18.5-10 24 17.5 15 75.5 7.5 244-10.5 244-2 0-23.5-11.5-48-26-110-64-165.5-95.5-175-100-8.5-4-26 4.5-99 46-48.5 28-99 57-112 65.5-12.5 8-25.5 14.5-29 14.5-3.5 0-8-13-11.5-31z"/>
			<path id="pf8o7e0vv" class="s0" d="m2800.5 1350l-13-30h-40c-22.5 0-40.5-1.5-40.5-3.5 0-1.5 9-15 20-29.5 11-14.5 20-29.5 20-32.5 0-3.5-9-18-20-32.5-11-14.5-20-27.5-20-29 0-1.5 18-3 40.5-4l40-1.5 14.5-32.5 14.5-32.5 15.5 34 16 33.5h39.5c21.5 0 39.5 1.5 39.5 4 0 2-9 15-20 28.5-11 14-20 27.5-20 30.5 0 3 9 18 20 33.5 11 15 20 29 20 30.5 0 1.5-18 3-40 3h-40.5l-13 30c-7 16.5-14.5 30-16.5 30-2 0-9-13.5-16.5-30z"/>
		</g>
	</g>
</svg>