<?xml version="1.0" encoding="UTF-8"?><svg xmlns="http://www.w3.org/2000/svg" xmlns:xlink="http://www.w3.org/1999/xlink" viewBox="0 0 652 652"><defs><style>.e{fill:url(#d);}.f{fill:#fff;}</style><linearGradient id="d" x1="95.48" y1="95.48" x2="556.52" y2="556.52" gradientTransform="matrix(1, 0, 0, 1, 0, 0)" gradientUnits="userSpaceOnUse"><stop offset="0" stop-color="#b3eee4"/><stop offset=".65" stop-color="#027fc7"/><stop offset="1" stop-color="#0288d1"/></linearGradient></defs><g id="a"/><g id="b"><g id="c"><circle class="e" cx="326" cy="326" r="326"/><polygon class="f" points="114.83 404.25 156.33 187.75 231.83 188.25 250.33 262.75 266.02 187.75 537.17 187.75 525.33 257.75 484.83 257.25 457.83 403.25 371.79 403.25 402.83 259.25 342.83 259.25 335.25 285.75 371.83 286.25 365.83 357.25 326.75 355.44 312.17 403.25 237.17 403.25 207.83 307.25 189.1 403.25 114.83 404.25"/><g><path class="f" d="M174.56,484.91c.48,.38,.58,1.09,.19,1.57-5.51,6.82-13.97,11.2-23.46,11.2-16.61,0-30.08-13.4-30.08-29.93s13.47-29.93,30.08-29.93c9.46,0,17.9,4.34,23.41,11.14,.39,.48,.3,1.19-.18,1.57l-11.04,8.75c-.46,.36-1.12,.32-1.51-.12-2.57-2.91-6.56-5.11-10.67-5.11-7.61,0-13.77,6.14-13.77,13.7s6.17,13.7,13.77,13.7c4.14,0,8.15-2.22,10.71-5.17,.39-.44,1.06-.49,1.52-.12l11.03,8.76Z"/><path class="f" d="M232.95,467.74c0,16.53-13.59,29.93-30.36,29.93s-30.36-13.4-30.36-29.93,13.59-29.93,30.36-29.93,30.36,13.41,30.36,29.93Zm-16.46,0c0-7.56-6.22-13.7-13.9-13.7s-13.89,6.14-13.89,13.7,6.22,13.7,13.89,13.7,13.9-6.14,13.9-13.7Z"/><path class="f" d="M276.35,438.67h14.53c.62,0,1.12,.5,1.12,1.12v55.09c0,.62-.5,1.12-1.12,1.12h-13.86c-.62,0-1.12-.5-1.12-1.12v-27.86l-4.25,17.97c-.12,.5-.57,.86-1.09,.86h-14.48c-.52,0-.97-.36-1.09-.86l-4.25-17.97v27.86c0,.62-.5,1.12-1.12,1.12h-13.86c-.62,0-1.12-.5-1.12-1.12v-55.09c0-.62,.5-1.12,1.12-1.12h14.52c.29,0,.57,.11,.77,.31,5.25,5.23,12.25,24.48,12.25,24.48,0,0,7-19.25,12.25-24.48,.2-.21,.49-.31,.77-.31Z"/><path class="f" d="M335.39,438.67h14.53c.62,0,1.12,.5,1.12,1.12v55.09c0,.62-.5,1.12-1.12,1.12h-13.86c-.62,0-1.12-.5-1.12-1.12v-27.86l-4.25,17.97c-.12,.5-.57,.86-1.09,.86h-14.48c-.52,0-.97-.36-1.09-.86l-4.25-17.97v27.86c0,.62-.5,1.12-1.12,1.12h-13.86c-.62,0-1.12-.5-1.12-1.12v-55.09c0-.62,.5-1.12,1.12-1.12h14.52c.29,0,.57,.11,.77,.31,5.25,5.23,12.25,24.48,12.25,24.48,0,0,7-19.25,12.25-24.48,.2-.21,.49-.31,.77-.31Z"/><path class="f" d="M352.74,494.87v-55.09c0-.62,.5-1.12,1.12-1.12h33.68c.62,0,1.12,.5,1.12,1.12v11.44c0,.62-.5,1.12-1.12,1.12h-18.71v8.15h16.16c.62,0,1.12,.5,1.12,1.12v11.44c0,.62-.5,1.12-1.12,1.12h-16.16v8.15h18.71c.62,0,1.12,.5,1.12,1.12v11.43c0,.62-.5,1.12-1.12,1.12h-33.68c-.62,0-1.12-.5-1.12-1.12Z"/><path class="f" d="M435.98,495.7c.02,.62-.5,1.14-1.12,1.14h-14.87c-.61,0-1.09-.49-1.11-1.1-.34-9.38-5.03-14.22-12.43-14.7v14.68c0,.62-.5,1.12-1.12,1.12h-13.86c-.62,0-1.12-.5-1.12-1.12v-55.94c0-.62,.5-1.12,1.12-1.12h27.22c9.39,0,17,6.59,17,20.53,0,8.2-2.65,13.84-6.73,17.11,4.18,4.76,6.8,11.24,7.03,19.39Zm-29.54-29.9c0,.29,.25,.52,.56,.52h6.54c3.26,0,5.91-2.5,5.91-6.62s-2.64-6.62-5.91-6.62h-6.54c-.31,0-.56,.23-.56,.52v12.2Z"/><path class="f" d="M491.05,484.91c.48,.38,.58,1.09,.19,1.57-5.51,6.82-13.97,11.2-23.46,11.2-16.61,0-30.08-13.4-30.08-29.93s13.47-29.93,30.08-29.93c9.46,0,17.9,4.34,23.41,11.14,.39,.48,.3,1.19-.18,1.57l-11.04,8.75c-.46,.36-1.12,.32-1.51-.12-2.57-2.91-6.56-5.11-10.67-5.11-7.61,0-13.77,6.14-13.77,13.7s6.17,13.7,13.77,13.7c4.14,0,8.15-2.22,10.71-5.17,.39-.44,1.06-.49,1.52-.12l11.03,8.76Z"/><path class="f" d="M493.19,494.87v-55.09c0-.62,.5-1.12,1.12-1.12h33.68c.62,0,1.12,.5,1.12,1.12v11.44c0,.62-.5,1.12-1.12,1.12h-18.71v8.15h16.16c.62,0,1.12,.5,1.12,1.12v11.44c0,.62-.5,1.12-1.12,1.12h-16.16v8.15h18.71c.62,0,1.12,.5,1.12,1.12v11.43c0,.62-.5,1.12-1.12,1.12h-33.68c-.62,0-1.12-.5-1.12-1.12Z"/></g></g></g></svg>